<svg width="16" height="19" viewBox="0 0 16 19" fill="none" xmlns="http://www.w3.org/2000/svg">
<path d="M14.8602 8.65589C14.8602 14.0347 9.351 17.3485 8.20611 17.9797C8.14269 18.0146 8.07144 18.033 7.999 18.033C7.92657 18.033 7.85532 18.0146 7.79189 17.9797C6.64615 17.3485 1.13867 14.0347 1.13867 8.65589C1.13867 4.36792 3.71146 1.36633 7.99943 1.36633C12.2874 1.36633 14.8602 4.36792 14.8602 8.65589Z" stroke="#E9A43C" stroke-width="1.4" stroke-linecap="round" stroke-linejoin="round"/>
<path d="M4.56836 8.22713C4.56836 9.13693 4.92977 10.0095 5.57309 10.6528C6.21642 11.2961 7.08895 11.6575 7.99874 11.6575C8.90853 11.6575 9.78106 11.2961 10.4244 10.6528C11.0677 10.0095 11.4291 9.13693 11.4291 8.22713C11.4291 7.31734 11.0677 6.44481 10.4244 5.80149C9.78106 5.15817 8.90853 4.79675 7.99874 4.79675C7.08895 4.79675 6.21642 5.15817 5.57309 5.80149C4.92977 6.44481 4.56836 7.31734 4.56836 8.22713V8.22713Z" stroke="#E9A43C" stroke-width="1.4" stroke-linecap="round" stroke-linejoin="round"/>
</svg>
