<svg width="22" height="25" viewBox="0 0 22 25" fill="none" xmlns="http://www.w3.org/2000/svg">
<path d="M21.515 6.74554C20.1453 6.74554 18.8815 6.29179 17.8667 5.52633C16.7028 4.64883 15.8665 3.36164 15.5712 1.87804C15.4981 1.51148 15.4587 1.1332 15.455 0.745544H11.5423V11.4368L11.5376 17.2929C11.5376 18.8585 10.5181 20.186 9.10481 20.6529C8.69465 20.7884 8.25168 20.8526 7.79043 20.8273C7.20168 20.7949 6.64996 20.6173 6.17043 20.3304C5.14996 19.7201 4.45809 18.6129 4.43934 17.3463C4.40981 15.3668 6.01012 13.7529 7.98824 13.7529C8.37871 13.7529 8.75371 13.8166 9.10481 13.9324V11.0102V9.95976C8.73449 9.90492 8.35762 9.87633 7.97652 9.87633C5.81137 9.87633 3.78637 10.7763 2.33887 12.3977C1.2448 13.623 0.588555 15.1863 0.487305 16.8255C0.354649 18.979 1.14262 21.026 2.67074 22.5363C2.89527 22.758 3.13105 22.9638 3.37762 23.1537C4.68777 24.1619 6.28949 24.7085 7.97652 24.7085C8.35762 24.7085 8.73449 24.6804 9.10481 24.6255C10.6807 24.3921 12.1348 23.6707 13.2823 22.5363C14.6923 21.1427 15.4714 19.2926 15.4798 17.3234L15.4597 8.57836C16.1323 9.09726 16.8678 9.52664 17.6572 9.85992C18.8848 10.3779 20.1865 10.6404 21.5262 10.6399V7.79883V6.74461C21.5272 6.74554 21.5159 6.74554 21.515 6.74554Z" fill="#E9A43C"/>
</svg>
