<svg width="38" height="38" viewBox="0 0 38 38" fill="none" xmlns="http://www.w3.org/2000/svg">
<path d="M31.8232 5.51431C28.7019 2.36192 24.5569 0.428657 20.1358 0.0632466C15.7147 -0.302164 11.3085 0.924328 7.71207 3.52149C4.11562 6.11866 1.56563 9.91553 0.522074 14.2272C-0.521483 18.5389 0.0100874 23.0816 2.0209 27.0359L0.0470362 36.6189C0.0265552 36.7142 0.0259751 36.8128 0.0453326 36.9084C0.06469 37.004 0.103568 37.0946 0.159535 37.1745C0.241524 37.2958 0.358558 37.3892 0.495007 37.4422C0.631457 37.4952 0.780828 37.5053 0.923172 37.4711L10.3152 35.245C14.2584 37.2049 18.769 37.7023 23.0445 36.6487C27.32 35.595 31.083 33.0587 33.6639 29.491C36.2449 25.9233 37.4764 21.5556 37.1393 17.1652C36.8023 12.7747 34.9185 8.64622 31.8232 5.51431ZM28.8948 28.887C26.7352 31.0406 23.9543 32.4621 20.944 32.9514C17.9336 33.4407 14.8457 32.973 12.1152 31.6143L10.8061 30.9666L5.04817 32.3302L5.06522 32.2586L6.2584 26.4632L5.61749 25.1984C4.22235 22.4584 3.7302 19.3472 4.21153 16.3104C4.69287 13.2735 6.12299 10.467 8.29704 8.29272C11.0288 5.56184 14.7333 4.02772 18.5959 4.02772C22.4585 4.02772 26.163 5.56184 28.8948 8.29272C28.918 8.3194 28.9431 8.34445 28.9698 8.36772C31.6676 11.1056 33.1737 14.7991 33.1596 18.6428C33.1456 22.4866 31.6126 26.1689 28.8948 28.887Z" fill="#E9A43C"/>
<path d="M28.3833 24.636C27.6777 25.7473 26.5629 27.1075 25.1618 27.445C22.7072 28.0382 18.9402 27.4655 14.2527 23.095L14.1947 23.0439C10.0731 19.2223 9.00266 16.0416 9.26175 13.5189C9.40493 12.0871 10.5981 10.7916 11.6038 9.94619C11.7628 9.81049 11.9513 9.71387 12.1543 9.66407C12.3574 9.61427 12.5692 9.61266 12.773 9.65937C12.9767 9.70608 13.1667 9.79982 13.3277 9.93309C13.4888 10.0664 13.6164 10.2355 13.7004 10.4269L15.2174 13.836C15.316 14.057 15.3525 14.3007 15.3231 14.541C15.2937 14.7812 15.1994 15.0089 15.0504 15.1996L14.2833 16.195C14.1188 16.4006 14.0194 16.6507 13.9982 16.9131C13.9769 17.1756 14.0347 17.4384 14.164 17.6678C14.5936 18.4212 15.6231 19.5291 16.7652 20.5553C18.047 21.7144 19.4686 22.7746 20.3686 23.136C20.6094 23.2343 20.8742 23.2584 21.1288 23.2049C21.3833 23.1514 21.6161 23.0229 21.797 22.836L22.6868 21.9394C22.8584 21.7701 23.0719 21.6493 23.3055 21.5894C23.5391 21.5296 23.7843 21.5327 24.0163 21.5985L27.6197 22.6212C27.8185 22.6822 28.0007 22.7878 28.1524 22.93C28.3041 23.0722 28.4212 23.2472 28.4949 23.4416C28.5686 23.636 28.5969 23.8447 28.5775 24.0517C28.5582 24.2587 28.4918 24.4586 28.3833 24.636Z" fill="#E9A43C"/>
</svg>