<svg width="20" height="20" viewBox="0 0 20 20" fill="none" xmlns="http://www.w3.org/2000/svg">
<path d="M12.2517 17.3851L12.2608 17.3915C13.0478 17.8926 13.9823 18.1102 14.9097 18.0084C15.8372 17.9065 16.7022 17.4913 17.3617 16.8313L17.9346 16.2584C18.0616 16.1315 18.1623 15.9808 18.231 15.815C18.2998 15.6492 18.3351 15.4714 18.3351 15.2919C18.3351 15.1124 18.2998 14.9347 18.231 14.7688C18.1623 14.603 18.0616 14.4524 17.9346 14.3255L15.5181 11.9107C15.3912 11.7838 15.2405 11.683 15.0747 11.6143C14.9089 11.5456 14.7311 11.5102 14.5516 11.5102C14.3721 11.5102 14.1944 11.5456 14.0286 11.6143C13.8627 11.683 13.7121 11.7838 13.5852 11.9107C13.329 12.1669 12.9815 12.3108 12.6192 12.3108C12.2569 12.3108 11.9094 12.1669 11.6532 11.9107L7.78926 8.04586C7.53311 7.78963 7.38922 7.44217 7.38922 7.07987C7.38922 6.71757 7.53311 6.3701 7.78926 6.11388C7.91623 5.987 8.01695 5.83633 8.08566 5.67051C8.15438 5.50468 8.18975 5.32694 8.18975 5.14744C8.18975 4.96794 8.15438 4.79019 8.08566 4.62437C8.01695 4.45854 7.91623 4.30788 7.78926 4.18099L5.3736 1.76625C5.11738 1.51011 4.76991 1.36621 4.40762 1.36621C4.04532 1.36621 3.69785 1.51011 3.44163 1.76625L2.86777 2.33919C2.20792 2.99883 1.79286 3.86385 1.69117 4.79131C1.58948 5.71878 1.80725 6.65318 2.30849 7.44012L2.31396 7.44923C4.96114 11.3658 8.33458 14.7386 12.2517 17.3851V17.3851Z" stroke="#E9A43C" stroke-width="1.4" stroke-linecap="round" stroke-linejoin="round"/>
</svg>
