<svg width="30" height="31" viewBox="0 0 30 31" fill="none" xmlns="http://www.w3.org/2000/svg">
<path d="M14.9867 2.97842C19.0131 2.97976 22.367 6.33182 22.3719 10.3679C22.373 11.3133 22.4022 12.1838 22.4555 12.9857C22.4885 13.4805 22.9 13.8471 23.3719 13.8471C23.4414 13.8471 23.5121 13.8392 23.5832 13.8226L24.8446 13.5269C24.8982 13.5142 24.9521 13.5082 25.0053 13.5082C25.3257 13.5082 25.6207 13.7271 25.6926 14.0513C25.7943 14.5094 25.5376 14.9723 25.0937 15.128L23.179 15.9009C22.6957 16.096 22.4361 16.6221 22.5722 17.1253C24.1082 22.8041 28.3987 22.2135 28.3987 22.9534C28.3987 23.8824 25.1648 24.0136 24.8726 24.3059C24.5805 24.5981 24.8599 26.0162 24.2071 26.2908C24.0841 26.3425 23.9093 26.3605 23.696 26.3605C23.2043 26.3605 22.509 26.2646 21.776 26.2646C21.1403 26.2646 20.4763 26.3368 19.8925 26.6064C18.3439 27.3218 16.8509 28.658 15 28.658C13.1492 28.658 11.6562 27.3218 10.1076 26.6064C9.52368 26.3367 8.85986 26.2646 8.22404 26.2646C7.49118 26.2646 6.79565 26.3605 6.30402 26.3605C6.09091 26.3605 5.91591 26.3425 5.79292 26.2908C5.14012 26.0162 5.4196 24.5981 5.12744 24.3059C4.83528 24.0136 1.6014 23.8824 1.6014 22.9533C1.6014 22.2134 5.89182 22.804 7.42789 17.1252C7.56401 16.6221 7.30439 16.096 6.82096 15.9008L4.90632 15.1279C4.46234 14.9722 4.20567 14.5094 4.30739 14.0512C4.37933 13.727 4.67431 13.5081 4.99465 13.5082C5.04782 13.5082 5.10175 13.5142 5.15543 13.5268L6.41676 13.8225C6.48786 13.8391 6.55865 13.8471 6.62815 13.8471C7.09999 13.8471 7.51155 13.4804 7.54447 12.9857C7.59783 12.1837 7.62704 11.3132 7.62819 10.3679C7.63306 6.33182 10.9603 2.97983 14.9867 2.97842ZM14.9872 1.37701H14.9866H14.9861C13.7842 1.3774 12.6135 1.61889 11.5065 2.09483C10.4438 2.55161 9.48749 3.20294 8.66398 4.03073C7.84156 4.85744 7.19434 5.8172 6.74031 6.88335C6.26822 7.99197 6.02813 9.16368 6.02666 10.366C6.02596 10.9562 6.01372 11.5291 5.99015 12.0777L5.52087 11.9676C5.34869 11.9273 5.17164 11.9068 4.99478 11.9067C4.48406 11.9066 3.98026 12.0793 3.57619 12.3928C3.15464 12.7198 2.85902 13.1856 2.74391 13.7042C2.46994 14.9388 3.15163 16.1851 4.33295 16.6234L5.73815 17.1906C4.80767 20.0466 3.09193 20.5939 1.93655 20.9626C1.62997 21.0604 1.36516 21.1449 1.11304 21.27C0.108447 21.7686 0 22.6133 0 22.9533C0 23.6046 0.308238 24.1989 0.868025 24.6267C1.14673 24.8398 1.492 25.0155 1.92348 25.1641C2.51158 25.3666 3.19333 25.4951 3.74741 25.5981C3.77419 25.8034 3.81346 26.0239 3.87963 26.2462C4.15436 27.1693 4.73414 27.5826 5.17215 27.7668C5.58775 27.9416 6.01718 27.9618 6.30402 27.9618C6.58459 27.9618 6.88117 27.9398 7.19517 27.9166C7.53204 27.8916 7.88038 27.8658 8.22404 27.8658C8.75661 27.8658 9.15305 27.9294 9.43599 28.0601C9.82449 28.2395 10.2365 28.4815 10.6727 28.7377C11.8871 29.4509 13.2635 30.2593 15 30.2593C16.7366 30.2593 18.1129 29.4509 19.3273 28.7377C19.7635 28.4815 20.1755 28.2395 20.5641 28.0601C20.847 27.9293 21.2435 27.8658 21.776 27.8658C22.1197 27.8658 22.468 27.8917 22.8048 27.9166C23.1188 27.9398 23.4154 27.9618 23.696 27.9618C23.9828 27.9618 24.4122 27.9416 24.8279 27.7668C25.2659 27.5826 25.8456 27.1693 26.1204 26.2462C26.1865 26.0239 26.2259 25.8034 26.2526 25.5981C26.8067 25.495 27.4885 25.3666 28.0765 25.1641C28.5081 25.0155 28.8533 24.8398 29.132 24.6267C29.6917 24.1989 30 23.6046 30 22.9533C30 22.6133 29.8916 21.7686 28.8868 21.27C28.6347 21.1449 28.3699 21.0604 28.0633 20.9626C26.9079 20.5941 25.1922 20.0467 24.2617 17.1907L25.6669 16.6235C26.8482 16.1852 27.5299 14.9388 27.256 13.7042C27.1409 13.1856 26.8452 12.7198 26.4237 12.3928C26.0196 12.0793 25.5159 11.9067 25.0053 11.9067C24.8285 11.9067 24.6514 11.9272 24.4791 11.9675L24.0098 12.0776C23.9862 11.5291 23.974 10.9562 23.9733 10.3659C23.9718 9.16266 23.7298 7.98979 23.2539 6.87969C22.7971 5.81406 22.1464 4.85456 21.3198 4.02779C20.4933 3.20108 19.5342 2.55046 18.4694 2.09406C17.3603 1.6187 16.1887 1.37746 14.9872 1.37701Z" fill="#E9A43C" stroke="#E9A43C"/>
</svg>
